<svg xmlns="http://www.w3.org/2000/svg" id="Group_38" width="54.564" height="54.564" data-name="Group 38" viewBox="0 0 54.564 54.564"><g id="Group_39" data-name="Group 39"><path id="Path_11" fill="#facc15" d="M27.282,0A27.282,27.282,0,1,0,54.564,27.282,27.282,27.282,0,0,0,27.282,0m0,52.2A24.919,24.919,0,1,1,52.2,27.282,24.919,24.919,0,0,1,27.282,52.2" data-name="Path 11"/><path id="Path_12" fill="#facc15" d="M201.773,249.711a5.783,5.783,0,0,0-10.077-1.5,5.785,5.785,0,0,0-.176,6.66c.01.018.023.034.034.052l3.37,5.055-1.256,1.887-10.653-15.98H172.972l1.551,2.326L188.647,269.4l1.383,2.075,1.411-2.117,2.2-3.3,1.411-2.117,1.259-1.887,1.409-2.117,3.019-4.528.755-1.129a5.793,5.793,0,0,0,.282-4.572m-11.715,17.572-12.711-19.068h4.394l10.514,15.771Zm6-9.839-2.378-3.567-.008-.01a3.19,3.19,0,0,1-.4-.6,3.409,3.409,0,0,1-.4-1.6,3.455,3.455,0,1,1,6.128,2.192l-.005.005-2.383,3.577-.282.421Z" data-name="Path 12" transform="translate(-162.78 -231.4)"/></g></svg>